HIERARCHY
ROOT Hips
{
	OFFSET 	 0.0	 0.0	 0.0
	CHANNELS 6 Xposition Yposition Zposition Xrotation Yrotation Zrotation 
	JOINT Spine
	{
		OFFSET 	 15.3169	 0.0	 -0.012192
		CHANNELS 3 Xrotation Yrotation Zrotation 
		JOINT Spine_1
		{
			OFFSET 	 15.3176	 0.0	 -0.012192
			CHANNELS 3 Xrotation Yrotation Zrotation 
			JOINT Neck
			{
				OFFSET 	 19.9142	 -1e-06	 1.563377
				CHANNELS 3 Xrotation Yrotation Zrotation 
				JOINT Head
				{
					OFFSET 	 6.926521	 0.0	 0.0
					CHANNELS 3 Xrotation Yrotation Zrotation 
					End Site
					{
						OFFSET 	 20.766598	 0.0	 0.0
					}
				}
				JOINT LeftShoulder
				{
					OFFSET 	 -6.201691	 -7.28423	 0.708832
					CHANNELS 3 Xrotation Yrotation Zrotation 
					JOINT LeftArm
					{
						OFFSET 	 14.107998	 1.3e-05	 0.0
						CHANNELS 3 Xrotation Yrotation Zrotation 
						JOINT LeftForeArm
						{
							OFFSET 	 28.5802	 0.0	 0.0
							CHANNELS 3 Xrotation Yrotation Zrotation 
							JOINT LeftHand
							{
								OFFSET 	 27.091896	 0.0	 0.0
								CHANNELS 3 Xrotation Yrotation Zrotation 
								JOINT Bip01_L_Finger0
								{
									OFFSET 	 2.676086	 3.19825	 0.628212
									CHANNELS 3 Xrotation Yrotation Zrotation 
									JOINT Bip01_L_Finger01
									{
										OFFSET 	 2.82782	 0.0	 0.0
										CHANNELS 3 Xrotation Yrotation Zrotation 
										JOINT Bip01_L_Finger02
										{
											OFFSET 	 3.100327	 0.0	 0.0
											CHANNELS 3 Xrotation Yrotation Zrotation 
											End Site
											{
												OFFSET 	 2.683968	 0.0	 0.0
											}
										}
									}
								}
								JOINT Bip01_L_Finger1
								{
									OFFSET 	 9.438972	 2.24244	 -0.203926
									CHANNELS 3 Xrotation Yrotation Zrotation 
									JOINT Bip01_L_Finger11
									{
										OFFSET 	 3.12896	 0.0	 0.0
										CHANNELS 3 Xrotation Yrotation Zrotation 
										JOINT Bip01_L_Finger12
										{
											OFFSET 	 2.379051	 0.0	 0.0
											CHANNELS 3 Xrotation Yrotation Zrotation 
											End Site
											{
												OFFSET 	 2.09993	 0.0	 0.0
											}
										}
									}
								}
								JOINT Bip01_L_Finger2
								{
									OFFSET 	 9.55928	 -0.145352	 -0.186424
									CHANNELS 3 Xrotation Yrotation Zrotation 
									JOINT Bip01_L_Finger21
									{
										OFFSET 	 3.801407	 0.0	 0.0
										CHANNELS 3 Xrotation Yrotation Zrotation 
										JOINT Bip01_L_Finger22
										{
											OFFSET 	 2.848793	 0.0	 0.0
											CHANNELS 3 Xrotation Yrotation Zrotation 
											End Site
											{
												OFFSET 	 2.01886	 0.0	 0.0
											}
										}
									}
								}
								JOINT Bip01_L_Finger3
								{
									OFFSET 	 8.993629	 -2.30169	 0.226974
									CHANNELS 3 Xrotation Yrotation Zrotation 
									JOINT Bip01_L_Finger31
									{
										OFFSET 	 3.369652	 0.0	 0.0
										CHANNELS 3 Xrotation Yrotation Zrotation 
										JOINT Bip01_L_Finger32
										{
											OFFSET 	 2.444229	 0.0	 0.0
											CHANNELS 3 Xrotation Yrotation Zrotation 
											End Site
											{
												OFFSET 	 2.057808	 0.0	 0.0
											}
										}
									}
								}
								JOINT Bip01_L_Finger4
								{
									OFFSET 	 8.023811	 -3.97473	 1.201897
									CHANNELS 3 Xrotation Yrotation Zrotation 
									JOINT Bip01_L_Finger41
									{
										OFFSET 	 2.908783	 0.0	 0.0
										CHANNELS 3 Xrotation Yrotation Zrotation 
										JOINT Bip01_L_Finger42
										{
											OFFSET 	 1.535797	 0.0	 0.0
											CHANNELS 3 Xrotation Yrotation Zrotation 
											End Site
											{
												OFFSET 	 1.630142	 0.0	 0.0
											}
										}
									}
								}
							}
						}
					}
				}
				JOINT RightShoulder
				{
					OFFSET 	 -6.20549	 7.280139	 0.70887
					CHANNELS 3 Xrotation Yrotation Zrotation 
					JOINT RightArm
					{
						OFFSET 	 14.107998	 -1e-05	 0.0
						CHANNELS 3 Xrotation Yrotation Zrotation 
						JOINT RightForeArm
						{
							OFFSET 	 28.5802	 -1.9e-05	 0.0
							CHANNELS 3 Xrotation Yrotation Zrotation 
							JOINT RightHand
							{
								OFFSET 	 27.092003	 0.0	 0.0
								CHANNELS 3 Xrotation Yrotation Zrotation 
								JOINT Bip01_R_Finger0
								{
									OFFSET 	 2.676079	 -3.19825	 0.628212
									CHANNELS 3 Xrotation Yrotation Zrotation 
									JOINT Bip01_R_Finger01
									{
										OFFSET 	 2.82782	 0.0	 0.0
										CHANNELS 3 Xrotation Yrotation Zrotation 
										JOINT Bip01_R_Finger02
										{
											OFFSET 	 3.100342	 0.0	 0.0
											CHANNELS 3 Xrotation Yrotation Zrotation 
											End Site
											{
												OFFSET 	 2.68396	 0.0	 0.0
											}
										}
									}
								}
								JOINT Bip01_R_Finger1
								{
									OFFSET 	 9.438957	 -2.242439	 -0.203918
									CHANNELS 3 Xrotation Yrotation Zrotation 
									JOINT Bip01_R_Finger11
									{
										OFFSET 	 3.12896	 0.0	 0.0
										CHANNELS 3 Xrotation Yrotation Zrotation 
										JOINT Bip01_R_Finger12
										{
											OFFSET 	 2.379051	 0.0	 0.0
											CHANNELS 3 Xrotation Yrotation Zrotation 
											End Site
											{
												OFFSET 	 2.099922	 0.0	 0.0
											}
										}
									}
								}
								JOINT Bip01_R_Finger2
								{
									OFFSET 	 9.559288	 0.145353	 -0.186417
									CHANNELS 3 Xrotation Yrotation Zrotation 
									JOINT Bip01_R_Finger21
									{
										OFFSET 	 3.801407	 0.0	 0.0
										CHANNELS 3 Xrotation Yrotation Zrotation 
										JOINT Bip01_R_Finger22
										{
											OFFSET 	 2.848793	 0.0	 0.0
											CHANNELS 3 Xrotation Yrotation Zrotation 
											End Site
											{
												OFFSET 	 2.01886	 0.0	 0.0
											}
										}
									}
								}
								JOINT Bip01_R_Finger3
								{
									OFFSET 	 8.993629	 2.301691	 0.226974
									CHANNELS 3 Xrotation Yrotation Zrotation 
									JOINT Bip01_R_Finger31
									{
										OFFSET 	 3.369652	 0.0	 0.0
										CHANNELS 3 Xrotation Yrotation Zrotation 
										JOINT Bip01_R_Finger32
										{
											OFFSET 	 2.444221	 0.0	 0.0
											CHANNELS 3 Xrotation Yrotation Zrotation 
											End Site
											{
												OFFSET 	 2.057823	 0.0	 0.0
											}
										}
									}
								}
								JOINT Bip01_R_Finger4
								{
									OFFSET 	 8.023811	 3.97473	 1.20192
									CHANNELS 3 Xrotation Yrotation Zrotation 
									JOINT Bip01_R_Finger41
									{
										OFFSET 	 2.908783	 0.0	 0.0
										CHANNELS 3 Xrotation Yrotation Zrotation 
										JOINT Bip01_R_Finger42
										{
											OFFSET 	 1.535797	 0.0	 0.0
											CHANNELS 3 Xrotation Yrotation Zrotation 
											End Site
											{
												OFFSET 	 1.630142	 0.0	 0.0
											}
										}
									}
								}
							}
						}
					}
				}
			}
		}
	}
	JOINT LeftUpLeg
	{
		OFFSET 	 -12.021299	 -8.83685	 -0.372498
		CHANNELS 3 Xrotation Yrotation Zrotation 
		JOINT LeftLeg
		{
			OFFSET 	 39.9035	 0.0	 0.0
			CHANNELS 3 Xrotation Yrotation Zrotation 
			JOINT LeftFoot
			{
				OFFSET 	 39.6689	 0.0	 0.0
				CHANNELS 3 Xrotation Yrotation Zrotation 
				JOINT Bip01_L_Toe0
				{
					OFFSET 	 10.162399	 -2e-06	 13.629601
					CHANNELS 3 Xrotation Yrotation Zrotation 
					End Site
					{
						OFFSET 	 8.38147	 0.0	 0.0
					}
				}
			}
		}
	}
	JOINT RightUpLeg
	{
		OFFSET 	 -12.021299	 8.836849	 -0.372444
		CHANNELS 3 Xrotation Yrotation Zrotation 
		JOINT RightLeg
		{
			OFFSET 	 39.9035	 0.0	 0.0
			CHANNELS 3 Xrotation Yrotation Zrotation 
			JOINT RightFoot
			{
				OFFSET 	 39.6689	 0.0	 0.0
				CHANNELS 3 Xrotation Yrotation Zrotation 
				JOINT Bip01_R_Toe0
				{
					OFFSET 	 10.162399	 -2e-06	 13.629601
					CHANNELS 3 Xrotation Yrotation Zrotation 
					End Site
					{
						OFFSET 	 8.38147	 0.0	 0.0
					}
				}
			}
		}
	}
}
MOTION
Frames: 4
Frame Time: 0.013889
-7.91656402505	85.7343597395	5.84991664911	156.37873901	14.8812846765	-88.9618083073	-0.0514478164565	-11.2994252346	-4.08346681053	-7.01167289751e-07	2.05233521245e-06	6.22522158131e-07	0.758716821892	-28.7340465814	6.27730504365	-2.56411044129	2.06891570871	-2.05845149191	156.308221602	-16.3036117732	97.592845106	7.31463099965	12.6940514465	-14.0188167675	4.20914218427e-05	26.6059042173	-3.9770776363e-05	-159.579763284	17.6850073289	14.7239783865	9.99047021296e-07	7.21581346023e-07	-3.21012696267e-07	-2.72426103991e-08	1.42607874291e-06	5.23368097953e-07	-1.39802145813e-07	3.94137561801e-07	-6.93337822698e-08	1.41182736181e-06	-1.99594591593e-07	6.89690544403e-07	4.36062256194e-07	3.44077136973e-07	-2.95509891073e-07	6.89362431581e-07	-6.94491053239e-07	-1.73998631574e-07	9.99514487087e-07	6.252473484e-07	-5.01569773614e-07	-8.0444225427e-09	7.35073423079e-07	-1.83248573112e-07	-4.30257221378e-08	-1.71746097097e-06	-2.51585451619e-07	9.3358086978e-07	7.37117243887e-07	3.37203001138e-07	2.41012464773e-07	2.02771235543e-06	-1.11039753788e-06	2.63873149746e-07	-8.54761386159e-07	7.8470439352e-08	1.01791569806e-06	3.71981464537e-07	1.68858058591e-07	2.06240604259e-07	1.00941994587e-06	-2.60909994019e-07	1.19714830555e-07	-9.51329613116e-07	3.38416027705e-08	-156.245344492	-13.0260011509	-96.3221421754	-6.93188125464	21.7422154915	5.12898064983	3.24115971896e-05	23.4564831815	-1.54059067525e-05	-177.261265209	3.54049990336	-35.3818566024	-1.15725911889e-06	-1.25299063725e-06	-2.37004547241e-07	-5.02097136123e-07	1.03197081202e-06	8.89431094516e-07	-6.80438642933e-07	2.24301885542e-06	2.55614672198e-07	-4.00671938483e-08	-5.62927505365e-07	3.89888849111e-07	-1.49399555028e-06	3.7473807665e-07	8.67024295584e-07	-2.68186543496e-07	1.12180253594e-07	3.46453648447e-07	-9.07610221441e-07	-7.81688525493e-07	1.27401624299e-07	5.07317869018e-07	8.34645341009e-07	2.89351172644e-07	1.0242467159e-06	1.44879096233e-09	8.33662155108e-07	-6.93793271728e-07	-1.71163728197e-06	-3.18065076606e-07	-1.29993379453e-06	9.8796120633e-07	2.91973220612e-07	4.27937198666e-07	-5.17203640757e-08	1.32381041193e-06	-3.00805495512e-07	-1.09109772061e-06	-1.99187431959e-07	-1.25282316638e-06	9.67346638627e-07	-9.70580057858e-07	1.85074216927e-06	-1.2559289227e-06	-1.64145318448e-07	38.2789959452	46.3403032388	162.903047286	0.904058967453	31.3104631052	-0.904054861504	2.21421807072	-4.63480412135	2.61500249195	-5.51378644126e-08	8.48231708716e-07	3.9380922388e-07	-34.2278497858	44.3191209425	-156.471642059	0.904059533131	28.486455218	-0.904055870721	-9.6502804844	0.163595824554	-1.06978223113	-1.95064558392e-06	-1.76776283738e-06	3.73386658355e-07	
-8.03960788933	85.3731886007	5.82199628678	155.902008666	15.1289804096	-88.9077399749	-0.0072599686208	-11.730041278	-4.13195418143	-1.39493358404e-06	4.06766610541e-07	1.08923465758e-06	0.401869517352	-28.2925048683	6.02826520394	-2.7689500336	2.12393622025	-1.68527603215	156.409432977	-15.8314475574	97.4852445926	6.67105143868	12.6612080536	-15.1439927171	3.57237192485e-05	25.8907037933	-3.39901953834e-05	-159.096856322	16.1583710658	13.9437740853	1.45950933408e-06	3.41764335795e-07	-7.18007680259e-07	-7.92929935408e-07	-8.88871921e-07	3.67724063059e-07	-9.94048367674e-07	-1.46741569714e-06	1.17495937184e-06	1.70322740842e-06	5.87527524741e-07	-1.63186356375e-06	-1.34249593406e-06	-2.09864478861e-06	-2.36701859371e-06	-7.48387446657e-07	-2.12785818395e-06	3.37312173708e-07	1.6608267125e-06	7.43368813675e-07	-1.71873934052e-06	-1.13648589384e-07	-9.30278107498e-07	-2.12064159758e-08	4.53169786293e-07	-1.14251883699e-07	1.39301638173e-06	1.74477517105e-06	5.78865226369e-07	-1.27725616998e-06	-8.83145076101e-07	-3.58395543114e-07	9.81545559125e-07	-9.1935153943e-07	-1.00210604267e-06	-1.63594422211e-07	1.48429117691e-06	4.69452974617e-07	-1.50248328683e-06	1.10310361706e-06	-1.32816099462e-06	-8.196617941e-08	-3.62051507918e-07	-1.47955085851e-07	-9.66919203852e-07	-155.783226713	-12.6116860011	-95.9548149734	-6.58687602077	21.865173002	5.55900453047	2.92904566635e-05	23.3941849408	-1.20222521622e-05	-178.011306333	2.59954602709	-34.9720407007	3.24998151045e-07	-8.44221787157e-07	-1.48159484875e-06	-1.54620245979e-06	-1.13567374732e-06	1.24308645874e-06	-3.84145627479e-07	-2.44075140805e-07	-6.54296491127e-07	2.43897541514e-07	-8.45426005698e-07	-1.29689000558e-06	-5.52408564191e-07	-3.38961952339e-07	5.69248768763e-07	-1.25062387023e-07	-1.1543540042e-06	8.97073390375e-07	9.6580061969e-07	-1.19185263375e-06	-1.08452785405e-06	-2.96412297795e-07	-1.58374582444e-06	1.9620397946e-07	-5.21119854651e-07	-1.23454711179e-06	-4.29971607196e-07	7.62498772978e-07	-8.1337999053e-07	-1.2713037771e-06	-1.26462916921e-06	3.20882586149e-07	8.53062863926e-07	-2.7950783074e-07	-1.98936870736e-06	3.70073212975e-07	1.7689474122e-08	-5.76018833786e-07	-1.40574274736e-06	-2.21714593225e-06	-1.39108524203e-06	1.19665726083e-07	-5.13923458653e-07	-7.00707276839e-07	-1.35801093942e-06	39.2745844841	47.2474033458	161.852580081	0.904058948685	32.3796406495	-0.904054879532	1.96804649978	-4.87439798982	2.75854698346	4.03318128656e-07	-5.63638222992e-07	5.05093373422e-07	-34.8750060385	45.3223674735	-155.625406663	0.904056946963	29.4315857154	-0.904053486767	-9.663248615	0.0578294004818	-1.05231822043	-5.53403965864e-07	-3.86694458936e-07	5.89396487834e-07	
-8.18064914294	85.1242726814	5.84838215329	155.273691699	15.2971088567	-88.868281469	0.0196427797081	-12.2408621617	-4.18864760548	1.76885503404e-07	1.77299728715e-06	-8.56047871472e-07	0.114479153057	-27.6310487247	5.86523811447	-2.98476135663	2.18689115737	-1.35132892427	156.406248765	-15.3299914024	97.3500674848	6.42497327142	12.7774286972	-15.8477422755	3.12901913331e-05	24.5821904322	-2.64779919938e-05	-159.259493696	13.7549141655	13.8076094905	6.12921655638e-07	2.87194756119e-06	-2.44995289168e-07	-8.06966777252e-07	2.77174338221e-07	-7.92615048372e-07	-4.2061386483e-07	1.51224226754e-06	-1.87471297985e-06	1.09317143113e-06	2.75915629514e-06	6.53673881052e-07	5.63794916032e-07	3.38734488738e-08	1.18065355364e-06	-4.40890540231e-07	-3.93957981592e-07	1.33339951734e-06	-2.28677609241e-07	3.10904328807e-06	1.08945344107e-06	-1.48143184891e-06	-1.22892221033e-06	1.76346173677e-06	8.84078256697e-07	2.95758931012e-07	7.4014719161e-07	6.76243169287e-07	2.34208815539e-06	9.249912778e-07	4.21044135805e-07	-5.20449596191e-08	1.51504597357e-06	-8.08621549047e-07	1.33325799388e-06	-3.11761945033e-07	1.49319351966e-06	3.91985741641e-06	1.2553583267e-06	-5.3903209667e-08	-5.4327958258e-07	1.90619376279e-08	-7.85154207734e-07	8.96386728808e-07	-2.64545839447e-06	-155.17456123	-12.1548287693	-95.7115591788	-6.34631719831	22.0522079286	5.97320208375	2.5534836962e-05	22.5707672646	-9.5098660882e-06	-178.378532583	0.662706825718	-34.5915409547	1.26502158268e-07	-1.47213452562e-06	6.98208135955e-07	-2.20157287705e-06	-5.52048265737e-07	7.2692910653e-07	-6.57391846859e-07	-9.03591172455e-07	5.22998159416e-07	1.27430185934e-07	-6.62532435693e-07	1.16000942347e-08	-1.36957098894e-06	-1.62447974534e-06	2.39791385702e-07	7.97205144292e-07	4.48097472711e-07	-2.54284403533e-07	5.11488545331e-07	-7.80629075876e-07	1.9555289995e-07	-2.94413017946e-06	-1.00871323763e-06	5.69710978385e-07	9.62067659691e-07	-1.34315193492e-06	1.48451106735e-07	7.42728710178e-07	-7.34720931144e-07	1.75570883295e-07	-2.19775037679e-06	1.62040679701e-07	-2.74583190193e-08	7.9577307109e-07	-2.39302493155e-07	-3.86153604224e-07	7.19512280255e-07	-2.30300093487e-07	6.13006549949e-08	-2.20126894138e-06	-1.16239845128e-06	4.9424616616e-07	-7.95837480834e-07	-1.81053214337e-06	1.33692697437e-06	40.9384816095	48.0801616104	160.348822594	0.904055259298	33.1616153713	-0.904051150951	2.22402435328	-5.01349833512	2.9974142421	-4.13250047674e-08	-2.18746468678e-06	1.91823275589e-07	-35.5924372513	46.276255379	-154.68938108	0.904016102281	30.0612133642	-0.904019106028	-9.68335053485	0.0365653852576	-1.01841178146	-7.0778911588e-07	-1.49446678619e-06	-7.48780567832e-08	
-8.26775558296	84.8568380539	5.75224974341	154.922470217	15.317632979	-88.783403182	0.00938584368751	-12.7122589509	-4.23823987446	7.72296042928e-08	1.24012553369e-06	4.39718655598e-07	0.0126040142826	-27.1673964444	5.80688858428	-3.04074525568	2.31919633141	-1.1321853889	156.383290321	-15.0178567797	97.256337148	6.12289344424	12.9227505328	-16.5487856134	2.97757780164e-05	23.7885369719	-2.3008931512e-05	-159.072064492	12.0614183555	13.7627842835	-2.05642803032e-06	-5.06047416093e-09	-2.62672802687e-07	-8.90339853098e-08	1.48637412122e-08	1.15782647056e-07	-1.16988435517e-07	2.2512417269e-06	1.3779187081e-06	-2.49868722158e-06	-2.22463557176e-07	1.09233202718e-07	2.31770598303e-07	-8.2164284067e-07	-3.68103405002e-07	-7.69688438003e-07	-6.73891396945e-07	8.78066295989e-07	-2.25245718231e-06	-4.8736746232e-07	2.9384436025e-07	4.01368498286e-08	-1.13119023691e-06	-1.59380494584e-06	4.23098218599e-07	1.41575355413e-08	5.34444562395e-07	-2.30070302627e-06	1.3825474131e-07	-8.17932174289e-08	1.17232707486e-06	8.0206834515e-07	1.99883068452e-07	1.04351263163e-06	2.3767505349e-07	1.67241131901e-06	-2.46819639667e-06	-7.04922021842e-07	3.72722371188e-07	4.26929376357e-07	-1.25350589592e-06	-1.56442852881e-06	-3.58118243672e-07	3.03656134177e-07	-5.09969762353e-07	-155.003141396	-11.8498664865	-95.571418292	-6.10760206941	21.9994621245	6.34045957588	2.03089772185e-05	22.4083211492	-5.65203330751e-06	-179.24216538	-0.977776816709	-34.3056199969	1.53548427195e-06	5.76601631746e-07	-1.50849169864e-08	-8.20862515553e-07	-2.93951900269e-07	-1.37855693901e-08	7.45390963497e-07	-6.92654611705e-07	2.8095572843e-07	1.94697195676e-06	1.08980512924e-07	-2.61574521073e-07	-1.42668966187e-06	-5.87626766681e-07	-1.65012667407e-06	4.86662762544e-07	-4.83665617662e-07	-2.05732024931e-06	2.3307130141e-06	1.89047007392e-07	1.90486304471e-07	9.61651747694e-08	6.80327165168e-07	-6.26074235283e-07	-5.56012318041e-07	7.93813263401e-07	-5.05616998999e-07	1.5567810551e-06	-2.81724115702e-07	6.94585891001e-07	-1.31375537188e-06	5.35287227417e-07	3.27966093072e-07	-1.47128596929e-07	7.04940961804e-07	-7.33766098646e-07	1.30708692439e-06	2.94981677018e-07	3.23862353251e-07	-1.69750716898e-06	5.70124531066e-07	-6.58707030656e-07	1.52766180253e-06	1.27014845319e-06	-5.61379830416e-07	42.0426094104	48.6240202047	159.175613251	-2.86268111145	33.8637912635	2.86268437565	2.21004355515	-5.17687363093	3.2131168799	-3.82182618851e-07	-2.4373576959e-06	-2.21956847775e-07	-36.2590953602	46.9863581861	-153.995519587	-2.86268938004	30.6599439501	2.86269270837	-9.60617498401	-0.077794057218	-1.00533876011	-8.541424864e-07	-1.19813027656e-07	-6.32930851462e-07	
